<?xml version="1.0" encoding="utf-8"?>
<!-- Generator: Adobe Illustrator 21.1.0, SVG Export Plug-In . SVG Version: 6.00 Build 0)  -->
<svg version="1.1" id="图层_1" xmlns="http://www.w3.org/2000/svg" xmlns:xlink="http://www.w3.org/1999/xlink" x="0px" y="0px"
	 viewBox="0 0 500 500" style="enable-background:new 0 0 500 500;" xml:space="preserve">
<style type="text/css">
	.st0{fill:#D9D4CF;}
	.st1{fill:#FFFFFF;stroke:#7C7877;stroke-miterlimit:10;}
	.st2{fill:#FFFFFF;stroke:#7C7877;stroke-width:2;stroke-miterlimit:10;}
	.st3{fill:#FFFFFF;stroke:#7C7877;stroke-width:3;stroke-miterlimit:10;}
	.st4{fill:#F0E5DE;}
	.st5{fill:#ABD0CE;}
	.st6{fill:#7C7877;}
	.st7{opacity:0.5;fill:#ABD0CE;}
	.st8{fill:#ABD0CE;stroke:#7C7877;stroke-miterlimit:10;}
	.st9{fill:none;stroke:#7C7877;stroke-width:2;stroke-miterlimit:10;}
	.st10{fill:none;stroke:#7C7877;stroke-width:3;stroke-linecap:round;stroke-linejoin:round;stroke-miterlimit:10;}
	.st11{fill:#FFFFFF;stroke:#7C7877;stroke-width:3;stroke-linecap:round;stroke-linejoin:round;stroke-miterlimit:10;}
</style>
<path class="st0" d="M192.2,166.4h-98c-6,0-11-4.9-11-11v0c0-6.1,4.9-11,11-11h98c6,0,11,4.9,11,11v0
	C203.2,161.5,198.3,166.4,192.2,166.4z"/>
<path class="st0" d="M261.6,196.4H122.8c-6,0-11-4.9-11-11v0c0-6.1,4.9-11,11-11h138.8c6,0,11,4.9,11,11v0
	C272.6,191.5,267.6,196.4,261.6,196.4z"/>
<path class="st0" d="M186.7,174.4h-59c2.2,0,4-1.8,4-4c0-2.2-1.8-4-4-4h59c-2.2,0-4,1.8-4,4C182.7,172.6,184.5,174.4,186.7,174.4z"
	/>
<g>
	<path class="st0" d="M354.2,278.4h-118c-6.1,0-11-4.9-11-11v0c0-6,4.9-11,11-11h118c6,0,11,5,11,11v0
		C365.2,273.5,360.3,278.4,354.2,278.4z"/>
	<path class="st0" d="M234.2,248.4h-18c-6.1,0-11-4.9-11-11v0c0-6.1,4.9-11,11-11h18c6,0,11,4.9,11,11v0
		C245.2,243.5,240.3,248.4,234.2,248.4z"/>
	<path class="st0" d="M430.7,248.4h-163c-6,0-11-4.9-11-11v0c0-6.1,4.9-11,11-11h163c6,0,11,4.9,11,11v0
		C441.7,243.5,436.8,248.4,430.7,248.4z"/>
	<path class="st0" d="M398.2,226.4h-52c2.2,0,4-1.8,4-4c0-2.2-1.8-4-4-4h52c-2.2,0-4,1.8-4,4C394.2,224.6,396,226.4,398.2,226.4z"/>
	<path class="st0" d="M412.2,218.4h-98c-6,0-11-4.9-11-11v0c0-6.1,4.9-11,11-11h98c6,0,11,4.9,11,11v0
		C423.2,213.5,418.3,218.4,412.2,218.4z"/>
	<path class="st0" d="M347.2,256.4h-72c2.2,0,4-1.8,4-4c0-2.2-1.8-4-4-4h72c-2.2,0-4,1.8-4,4C343.2,254.6,345,256.4,347.2,256.4z"/>
</g>
<g id="飞碟">
	<path class="st1" d="M308.3,155.8L308.3,155.8c-1.1-0.3-1.7-1.4-1.4-2.4l4.1-15.5c0.3-1.1,1.4-1.7,2.4-1.4l0,0
		c1.1,0.3,1.7,1.4,1.4,2.4l-4.1,15.5C310.5,155.5,309.4,156.1,308.3,155.8z"/>
	<path class="st2" d="M337.7,180.5c-9.6-4-20.8-7.9-33-11.1c-12.2-3.3-23.8-5.5-34.1-6.8c8-13.7,24.4-20.9,40.4-16.6
		C327,150.2,337.6,164.7,337.7,180.5z"/>
	<path class="st3" d="M369.6,205.4c-1.9,7.2-21.2,8.7-47,4.6c-8.5-1.3-17.7-3.3-27.2-5.8c-9.5-2.6-18.5-5.5-26.5-8.6
		c-24.4-9.3-40.3-20.2-38.4-27.5c1.8-6.6,17.8-8.4,40.1-5.6c10.3,1.3,22,3.6,34.1,6.8c12.2,3.3,23.4,7.1,33,11.1
		C358.3,189.2,371.3,198.8,369.6,205.4z"/>
	<path class="st4" d="M367.6,205.9c-2.4,6.2-21.6,6.8-47,2.3c-8.3-1.5-17.4-3.5-26.7-6.1c-9.3-2.6-18-5.4-25.8-8.4
		c-23.6-9-38.7-19.1-36.4-25.3c2.2-5.6,18.2-6.6,40.2-3.4c10.2,1.5,21.6,3.9,33.5,7.2c11.9,3.3,22.8,7,32,10.9
		C357.4,191.5,369.7,200.3,367.6,205.9z"/>
	<path class="st0" d="M272.6,161.3c0,0,33.1,4.1,63.9,17.2c-1.3-20.7-17-27.4-25.6-30C295.4,144.8,281.8,147.3,272.6,161.3z"/>
	
		<rect x="238" y="238.3" transform="matrix(0.935 0.3546 -0.3546 0.935 112.3882 -79.4583)" class="st5" width="70.1" height="57.4"/>
	<g id="页面_1_">
		<path class="st6" d="M321.4,246.5c-0.2-0.4-0.6-0.8-1-1l-71.6-26.7c-0.5-0.2-1-0.2-1.4,0.1c-0.4,0.2-0.8,0.6-1,1L224.3,279
			c-0.4,1,0.1,2,1.1,2.4l50.4,18.8c0,0,0,0,0.1,0c0.9,0.3,2-0.2,2.3-1.1c0.3-0.9-0.1-2-1-2.4c0,0,0,0-0.1,0l-48.7-18.2l16.1-43.2
			l68.1,25.4L296.5,304l-5.4-2c-0.1,0-0.1,0-0.2-0.1c-0.9-0.3-1.9,0.2-2.2,1.1c-0.3,0.9,0.1,1.9,0.9,2.3c0,0,0,0,0,0l7.2,2.7
			c0.5,0.2,1,0.2,1.4,0c0.4-0.2,0.8-0.6,1-1l22.1-59.1C321.6,247.5,321.6,247,321.4,246.5z M245.9,231.9l3.3-9l68.1,25.4l-3.3,9
			L245.9,231.9z"/>
		<g>
			<path class="st6" d="M251.3,268.8c-0.5,0.3-1.1,0.3-1.8,0c-0.6-0.2-1-0.6-1.3-1.2c-0.3-0.6-0.3-1.1-0.1-1.8l1.1-2.9l-1.5-0.5
				c-1.6-0.6-2.8-1.7-3.5-3.2c-0.7-1.5-0.7-3.1-0.1-4.7l2-5.5c0.2-0.6,0.6-1.1,1.2-1.3c0.6-0.3,1.1-0.3,1.8,0
				c0.6,0.2,1.1,0.6,1.3,1.2c0.3,0.6,0.3,1.2,0,1.8l-2,5.5c-0.2,0.4-0.1,0.8,0,1.2c0.2,0.4,0.5,0.7,0.9,0.8l1.5,0.5l2.6-7
				c0.2-0.6,0.6-1,1.2-1.3c0.6-0.3,1.2-0.3,1.8,0c0.6,0.2,1.1,0.6,1.3,1.2c0.3,0.5,0.3,1.1,0,1.8l-5.3,14.2
				C252.2,268.2,251.8,268.6,251.3,268.8z"/>
			<path class="st6" d="M268.7,276.1c-2.6-1-4.5-2.7-5.6-5.1c-1.1-2.5-1.2-5-0.2-7.6c1-2.6,2.7-4.5,5.1-5.6c2.5-1.1,5-1.2,7.6-0.2
				c2.6,1,4.5,2.7,5.6,5.1c1.1,2.5,1.2,5,0.2,7.6c-1,2.6-2.7,4.5-5.1,5.6C273.8,277,271.2,277,268.7,276.1z M274,261.9
				c-1.4-0.5-2.8-0.5-4.1,0.1c-1.3,0.6-2.2,1.6-2.7,3c-0.5,1.4-0.5,2.8,0.1,4.1c0.6,1.3,1.6,2.2,3,2.8c1.4,0.5,2.8,0.5,4.1-0.1
				c1.3-0.6,2.2-1.6,2.8-3c0.5-1.4,0.5-2.8-0.1-4.1C276.4,263.3,275.4,262.4,274,261.9z"/>
			<path class="st6" d="M296.8,285.9c-0.5,0.3-1.1,0.3-1.8,0c-0.6-0.2-1-0.6-1.3-1.2c-0.3-0.6-0.3-1.1-0.1-1.8l1.1-2.9l-1.5-0.5
				c-1.6-0.6-2.8-1.7-3.5-3.2c-0.7-1.5-0.7-3.1-0.1-4.7l2-5.5c0.2-0.6,0.6-1.1,1.2-1.3c0.6-0.3,1.1-0.3,1.8,0
				c0.6,0.2,1.1,0.6,1.3,1.2c0.3,0.6,0.3,1.2,0,1.8l-2,5.5c-0.2,0.4-0.1,0.8,0,1.2c0.2,0.4,0.5,0.7,0.9,0.8l1.5,0.5l2.6-7
				c0.2-0.6,0.6-1,1.2-1.3c0.6-0.3,1.2-0.3,1.8,0c0.6,0.2,1.1,0.6,1.3,1.2c0.3,0.5,0.3,1.1,0,1.8l-5.3,14.2
				C297.7,285.2,297.4,285.6,296.8,285.9z"/>
		</g>
		<path class="st6" d="M251.8,231c-0.5-0.2-0.8-0.5-1.1-1c-0.2-0.5-0.2-1-0.1-1.4c0.2-0.5,0.5-0.8,1-1c0.9-0.4,2,0,2.5,0.9
			c0.4,0.9,0,2-0.9,2.5C252.7,231.1,252.2,231.2,251.8,231L251.8,231z"/>
		<path class="st6" d="M257.9,233.3c-0.4-0.2-0.8-0.5-1-1c-0.2-0.4-0.2-1-0.1-1.4c0.2-0.5,0.5-0.8,1-1.1c0.7-0.3,1.5-0.1,2,0.4
			c0.5,0.5,0.7,1.3,0.5,2c-0.2,0.5-0.5,0.8-1,1C258.9,233.5,258.4,233.5,257.9,233.3L257.9,233.3z"/>
		<path class="st6" d="M264.2,235.6c-0.5-0.2-0.8-0.5-1-1c-0.2-0.4-0.2-0.9-0.1-1.4c0.2-0.5,0.5-0.8,1-1.1c0.9-0.4,2,0,2.4,0.9
			c0.4,0.9,0,2-0.9,2.5C265.2,235.8,264.6,235.8,264.2,235.6L264.2,235.6z"/>
	</g>
	<polyline class="st7" points="159.7,324.4 266.9,177.1 333.5,195.2 333.5,324.4 159.7,324.4 	"/>
	<path class="st8" d="M333,195.7c-0.9,3.5-10,4.2-22.2,2.2c-4-0.6-8.4-1.6-12.9-2.8c-4.5-1.2-8.7-2.6-12.5-4.1
		c-11.5-4.5-19.1-9.7-18.2-13.1c0.8-3.1,8.4-4,19-2.7c4.9,0.6,10.4,1.7,16.2,3.3c5.8,1.6,11.1,3.4,15.6,5.3
		C327.6,187.9,333.8,192.5,333,195.7z"/>
	<circle class="st4" cx="314.1" cy="136.3" r="3"/>
	<ellipse transform="matrix(0.2584 -0.966 0.966 0.2584 101.7217 403.6242)" class="st9" cx="313.7" cy="135.6" rx="4" ry="4"/>
</g>
<g id="山">
	<polygon class="st4" points="434.6,303.8 444.8,325.1 405.3,325.1 	"/>
	<polygon class="st10" points="432.1,299 444.6,325 396.4,325 	"/>
	<polygon class="st11" points="351.6,325 398.4,283.5 417.9,325 400.4,325 	"/>
	<polygon class="st4" points="364.1,323.6 400.3,291.2 415.5,323.6 	"/>
</g>
<path id="地面_3_" class="st6" d="M335.5,326.4h-119c-0.6,0-1-0.4-1-1l0,0c0-0.6,0.4-1,1-1h119c0.6,0,1,0.4,1,1l0,0
	C336.5,326,336.1,326.4,335.5,326.4z"/>
<path id="地面_2_" class="st6" d="M491,326.4H343c-0.6,0-1-0.4-1-1l0,0c0-0.6,0.4-1,1-1h148c0.6,0,1,0.4,1,1l0,0
	C492,326,491.6,326.4,491,326.4z"/>
<path id="地面" class="st6" d="M187,326.4H9c-0.6,0-1-0.4-1-1l0,0c0-0.6,0.4-1,1-1h178c0.6,0,1,0.4,1,1l0,0
	C188,326,187.6,326.4,187,326.4z"/>
<g id="树_1_">
	<path class="st4" d="M127.2,314.9L127.2,314.9c-3.6,0-6.5-2.9-6.5-6.5v-14c0-3.6,2.9-6.5,6.5-6.5h0c3.6,0,6.5,2.9,6.5,6.5v14
		C133.7,312,130.8,314.9,127.2,314.9z"/>
	<path class="st9" d="M126.2,314.9L126.2,314.9c-4.4,0-8-3.6-8-8v-15c0-4.4,3.6-8,8-8h0c4.4,0,8,3.6,8,8v15
		C134.2,311.3,130.6,314.9,126.2,314.9z"/>
	<path class="st1" d="M126.2,305.4L126.2,305.4c0.3,0,0.5,0.2,0.5,0.5v19c0,0.3-0.2,0.5-0.5,0.5l0,0c-0.3,0-0.5-0.2-0.5-0.5v-19
		C125.7,305.7,125.9,305.4,126.2,305.4z"/>
</g>
<g id="树">
	<path class="st4" d="M105.2,308.9L105.2,308.9c-3.9,0-7-3.1-7-7v-29c0-3.9,3.1-7,7-7h0c3.8,0,7,3.1,7,7v29
		C112.2,305.8,109.1,308.9,105.2,308.9z"/>
	<path class="st9" d="M104.2,309.4L104.2,309.4c-4.4,0-8-3.6-8-8v-34c0-4.4,3.6-8,8-8h0c4.4,0,8,3.6,8,8v34
		C112.2,305.8,108.6,309.4,104.2,309.4z"/>
	<path class="st1" d="M104.2,291.4L104.2,291.4c0.3,0,0.5,0.2,0.5,0.5v33c0,0.3-0.2,0.5-0.5,0.5l0,0c-0.3,0-0.5-0.2-0.5-0.5v-33
		C103.7,291.7,103.9,291.4,104.2,291.4z"/>
</g>
<path class="st6" d="M208.8,326.4h-11c-0.6,0-1-0.4-1-1l0,0c0-0.5,0.4-1,1-1h11c0.6,0,1,0.5,1,1l0,0
	C209.8,326,209.3,326.4,208.8,326.4z"/>
<g>
	<path class="st6" d="M155.7,373.2c0.1-0.1,0.3-0.2,0.5-0.2c0.3,0,0.6,0.3,0.6,0.6c0,0.1,0,0.3-0.1,0.4l-2.5,3.2
		c-0.3,0.4-0.5,0.5-0.9,0.5h-0.8c-0.2,0-0.3-0.2-0.3-0.3v0c0-0.2,0.2-0.3,0.3-0.3h0.1c0.2,0,0.3,0,0.5-0.2L155.7,373.2z
		 M155.7,376.7c0.1-0.1,0.3-0.2,0.5-0.2c0.3,0,0.6,0.3,0.6,0.6c0,0.1,0,0.3-0.1,0.4l-1.1,1.5v7.2c0,0.4-0.3,0.6-0.6,0.6
		c-0.4,0-0.6-0.3-0.6-0.6v-5.7l-0.2,0.3c-0.3,0.4-0.5,0.5-0.9,0.5h-0.8c-0.2,0-0.3-0.2-0.3-0.3v0c0-0.2,0.2-0.3,0.3-0.3h0.1
		c0.2,0,0.3,0,0.5-0.2L155.7,376.7z M158.4,385.6c0,0.2,0.2,0.4,0.4,0.4h1.6c0.2,0,0.3,0.1,0.3,0.3v0c0,0.2-0.2,0.3-0.3,0.3h-1.9
		c-0.7,0-1.2-0.6-1.2-1.2v-10.9c0-0.7,0.5-1.2,1.2-1.2h5.4c0.7,0,1.2,0.6,1.2,1.2v4.2c0,0.7-0.5,1.2-1.2,1.2h-1.4l1.1,2.7l1.5-1.2
		c0.3-0.2,0.6-0.2,0.8,0.1c0.2,0.2,0.2,0.6-0.1,0.8l-1.7,1.5l0.8,1.9c0.1,0.2,0.3,0.3,0.5,0.3h0.3c0.2,0,0.4,0.2,0.4,0.4
		c0,0.2-0.2,0.3-0.4,0.3h-1.1c-0.3,0-0.5-0.2-0.6-0.4l-2.6-6.3h-2.5c-0.1,0-0.3,0.1-0.3,0.3V385.6z M158.4,376.3h5.4v-2
		c0-0.2-0.2-0.4-0.4-0.4h-4.6c-0.2,0-0.4,0.2-0.4,0.4V376.3z M163.8,377h-5.4v2c0,0.1,0.1,0.3,0.3,0.3h4.7c0.2,0,0.4-0.1,0.4-0.4
		V377z"/>
	<path class="st6" d="M168.1,375.9v-2.3c0-0.3,0.3-0.6,0.6-0.6c0.3,0,0.6,0.3,0.6,0.6v2.3h1.3c0.2,0,0.4,0.2,0.4,0.4
		c0,0.2-0.2,0.3-0.4,0.3h-1.3v2.9l0.6-0.6c0.2-0.3,0.5-0.3,0.8-0.1c0.3,0.2,0.3,0.6,0,0.9l-1.4,1.5v4.4c0,0.7-0.5,1.2-1.2,1.2H167
		c-0.2,0-0.3-0.2-0.3-0.3v0c0-0.2,0.1-0.4,0.3-0.4h0.7c0.2,0,0.4-0.2,0.4-0.4v-3.3c-0.3,0.3-0.6,0.3-1,0.3h-0.7
		c-0.2,0-0.3-0.1-0.3-0.3v0c0-0.2,0.1-0.3,0.3-0.3h0.1c0.2,0,0.4,0,0.6-0.2l1-1.1v-4.2h-1.4c-0.2,0-0.3-0.1-0.3-0.3
		c0-0.2,0.2-0.4,0.3-0.4H168.1z M173,375.5h5.2c0.2,0,0.4,0.2,0.4,0.4v6.7c0,0.2-0.2,0.4-0.4,0.4h-1.1c-0.2,0-0.3,0.2-0.3,0.3v0
		c0,0.2,0.2,0.3,0.3,0.3h1.5c0.7,0,1.2-0.5,1.2-1.2v-6.4c0-0.7-0.6-1.2-1.2-1.2h-5.4l0.4-1.1c0.1-0.4-0.1-0.7-0.5-0.8h0
		c-0.2,0-0.3,0-0.4,0.1c-0.1,0.1-0.2,0.2-0.2,0.4l-1,2.9c-0.1,0.2-0.2,0.4-0.4,0.4h0c-0.2,0-0.3,0.2-0.3,0.3v0
		c0,0.2,0.1,0.3,0.3,0.3h0.4c0.7,0,0.9-0.4,1.2-1.2L173,375.5z M179.6,386c0.2,0,0.3,0.2,0.3,0.3c0,0.2-0.1,0.3-0.3,0.3h-6.1
		c-0.7,0-1.2-0.6-1.2-1.2v-7c0-0.7,0.5-1.2,1.2-1.2h3c0.7,0,1.2,0.6,1.2,1.2v2.7c0,0.7-0.5,1.2-1.2,1.2h-2.7c-0.2,0-0.3,0.1-0.3,0.3
		v2.9c0,0.2,0.2,0.4,0.4,0.4H179.6z M176.4,378.3c0-0.2-0.2-0.4-0.4-0.4h-2.2c-0.2,0-0.4,0.2-0.4,0.4v3.1c0,0.2,0.1,0.3,0.3,0.3h2.3
		c0.2,0,0.4-0.2,0.4-0.4V378.3z"/>
	<path class="st6" d="M182.6,376.5v-1.3h-2.3c-0.2,0-0.3-0.2-0.3-0.3c0-0.2,0.2-0.4,0.3-0.4h1.4l-0.4-0.7c-0.2-0.3-0.1-0.7,0.3-0.8
		c0.3-0.1,0.7,0,0.8,0.3l0.7,1.2h1.9l0.7-1.2c0.2-0.3,0.5-0.4,0.8-0.3c0.3,0.2,0.4,0.5,0.3,0.8l-0.5,0.7h1.4c0.2,0,0.3,0.2,0.3,0.4
		c0,0.2-0.1,0.3-0.3,0.3h-2.1v1.3h0.7c0.7,0,1.2,0.6,1.2,1.2v1.2h0.1c0.2,0,0.3,0.2,0.3,0.4c0,0.2-0.1,0.3-0.3,0.3h-0.1v1.2
		c0,0.7-0.5,1.2-1.2,1.2h-0.7v4.1c0,0.3-0.3,0.6-0.6,0.6c-0.3,0-0.6-0.3-0.6-0.6V382h-0.7v4.1c0,0.3-0.3,0.6-0.6,0.6
		c-0.3,0-0.6-0.3-0.6-0.6V382h-1.7c-0.2,0-0.3-0.1-0.3-0.3c0-0.2,0.1-0.3,0.3-0.3h1.7v-1.8h-2.1c-0.2,0-0.3-0.2-0.3-0.3
		c0-0.2,0.2-0.4,0.3-0.4h2.1v-1.8h-1.7c-0.2,0-0.3-0.2-0.3-0.3v0c0-0.2,0.1-0.3,0.3-0.3H182.6z M181.9,385.4
		c-0.1,0.7-0.5,1.3-1.1,1.3h-0.3c-0.2,0-0.3-0.2-0.3-0.3v0c0-0.2,0.1-0.3,0.3-0.3h0c0.2,0,0.3-0.2,0.3-0.4l0.2-2.8
		c0.1-0.8,1.1-0.7,1.1,0.1L181.9,385.4z M183.8,376.5h0.7v-1.3h-0.7V376.5z M183.8,378.9h0.7v-1.8h-0.7V378.9z M183.8,381.4h0.7
		v-1.8h-0.7V381.4z M185.7,377.2v1.8h0.8v-1.3c0-0.2-0.2-0.4-0.4-0.4H185.7z M186.5,381v-1.4h-0.8v1.8h0.4
		C186.3,381.4,186.5,381.2,186.5,381z M186.2,382.9c-0.1-0.8,1-0.9,1.1-0.1l0.2,2.8c0,0.2,0.1,0.4,0.3,0.4h0c0.2,0,0.3,0.2,0.3,0.3
		v0c0,0.2-0.1,0.3-0.3,0.3h-0.3c-0.6,0-1.1-0.6-1.1-1.3L186.2,382.9z M190.8,374.9h2.6c0.2,0,0.3,0.1,0.4,0.2
		c0.1,0.2,0.1,0.3,0.1,0.5l-0.6,3c-0.1,0.3-0.4,0.5-0.7,0.5c-0.3-0.1-0.5-0.4-0.4-0.8l0.5-2.6c0-0.1,0-0.1,0-0.1
		c0,0-0.1-0.1-0.1-0.1h-1.9L190,378c-0.2,0.8-0.4,1.2-1.1,1.2h-0.4c-0.2,0-0.3-0.2-0.3-0.3v0c0-0.2,0.1-0.3,0.3-0.3h0
		c0.2,0,0.3-0.2,0.3-0.4l1.1-4.6c0-0.2,0.1-0.3,0.2-0.4c0.1-0.1,0.3-0.1,0.4-0.1h0c0.3,0,0.6,0.3,0.5,0.8L190.8,374.9z M191.7,377.9
		c0-0.3-0.3-0.6-0.6-0.6c-0.3,0-0.6,0.3-0.6,0.6v2.5l-2.1,5.6c-0.1,0.3,0,0.6,0.4,0.8c0.3,0.1,0.6,0,0.8-0.3l1.6-4.2l1.6,4.2
		c0.1,0.3,0.5,0.5,0.8,0.3c0.3-0.1,0.5-0.5,0.3-0.8l-2.1-5.6V377.9z"/>
	<path class="st6" d="M196.2,383.1c0.1-0.3,0.4-0.4,0.7-0.2c0.3,0.1,0.4,0.4,0.2,0.7l-1.3,2.6c-0.1,0.3-0.4,0.4-0.7,0.2
		c-0.3-0.1-0.4-0.4-0.3-0.7L196.2,383.1z"/>
	<path class="st6" d="M210,385.1c-0.2,0.8-0.5,1.2-1.2,1.2h-0.5c-0.2,0-0.3-0.2-0.3-0.3v0c0-0.2,0.1-0.3,0.3-0.3h0
		c0.2,0,0.4-0.2,0.4-0.4l0.4-2.4c0-0.2,0.1-0.3,0.2-0.4c0.1-0.1,0.3-0.1,0.4-0.1h0c0.3,0,0.6,0.3,0.5,0.8L210,385.1z M211.1,374.9
		v6.1c0,0.3-0.3,0.6-0.6,0.6c-0.3,0-0.6-0.3-0.6-0.6V377c-0.3,0.3-0.5,0.5-0.8,0.5h-0.6c-0.2,0-0.3-0.2-0.3-0.3v0
		c0-0.2,0.1-0.3,0.3-0.3c0.2,0,0.4-0.2,0.5-0.4l1.7-3c0.2-0.3,0.3-0.5,0.7-0.5c0.4,0.1,0.6,0.6,0.4,0.9L211.1,374.9z M214.9,374.2
		h6.5c0.2,0,0.4,0.1,0.5,0.3c0.1,0.2,0.1,0.4,0,0.6l-1.3,1.9c-0.2,0.3-0.6,0.4-0.9,0.2c-0.3-0.2-0.3-0.6-0.2-0.9l0.8-1.2
		c0,0,0-0.1,0-0.1c0,0-0.1-0.1-0.1-0.1h-5.8l-0.6,1.1c-0.5,0.8-0.7,1.2-1.2,1.2H212c-0.2,0-0.3-0.2-0.3-0.3v0c0-0.2,0.1-0.3,0.3-0.3
		c0.2,0,0.4-0.2,0.5-0.4l1.5-2.7c0.2-0.3,0.3-0.5,0.7-0.5c0.4,0.1,0.6,0.6,0.4,0.9L214.9,374.2z M212.9,385.6c0,0.2,0.2,0.4,0.4,0.4
		h5.8c0.2,0,0.3,0.2,0.3,0.3c0,0.2-0.2,0.3-0.3,0.3h-6.2c-0.7,0-1.2-0.6-1.2-1.2v-2.3c0-0.3,0.3-0.6,0.6-0.6h0
		c0.3,0,0.6,0.3,0.6,0.6V385.6z M214.2,378.5c0.1-0.4-0.1-0.8-0.5-0.8h0c-0.2,0-0.3,0-0.4,0.1c-0.1,0.1-0.2,0.2-0.2,0.4l-0.4,1.5
		c-0.1,0.2-0.2,0.4-0.4,0.4h0c-0.2,0-0.3,0.2-0.3,0.3v0c0,0.2,0.1,0.3,0.3,0.3h0.5c0.7,0,1-0.4,1.2-1.2L214.2,378.5z M216.1,376.6
		c0-0.3,0.3-0.6,0.6-0.6c0.3,0,0.6,0.3,0.6,0.6v3.8c0,0.7-0.5,1.2-1.2,1.2h-1.1c-0.2,0-0.3-0.2-0.3-0.3v0c0-0.2,0.1-0.3,0.3-0.3h0.7
		c0.2,0,0.4-0.2,0.4-0.4V376.6z M215.6,383.8c0.2,0.8,0.5,1.2,1.2,1.2h0.5c0.2,0,0.3-0.2,0.3-0.3v0c0-0.2-0.1-0.3-0.3-0.3h0
		c-0.2,0-0.4-0.2-0.4-0.4l-0.2-1c0-0.2-0.1-0.3-0.2-0.4c-0.1-0.1-0.3-0.1-0.4-0.1h0c-0.3,0-0.6,0.3-0.5,0.8L215.6,383.8z
		 M219.4,378.5c-0.1-0.4,0.1-0.8,0.5-0.8h0c0.2,0,0.3,0,0.4,0.1c0.1,0.1,0.2,0.2,0.2,0.4l0.4,1.5c0.1,0.2,0.2,0.4,0.4,0.4h0
		c0.2,0,0.3,0.2,0.3,0.3v0c0,0.2-0.1,0.3-0.3,0.3h-0.5c-0.7,0-1-0.4-1.2-1.2L219.4,378.5z M220,385.1c0.2,0.8,0.5,1.2,1.2,1.2h0.5
		c0.2,0,0.3-0.2,0.3-0.3v0c0-0.2-0.1-0.3-0.3-0.3h0c-0.2,0-0.4-0.2-0.4-0.4l-0.4-1.9c0-0.2-0.1-0.3-0.2-0.4
		c-0.1-0.1-0.3-0.1-0.4-0.1h0c-0.3,0-0.6,0.3-0.5,0.8L220,385.1z"/>
	<path class="st6" d="M224.3,375.3v-1.8c0-0.3,0.3-0.6,0.6-0.6c0.3,0,0.6,0.3,0.6,0.6v1.8h1.3c0.7,0,1.2,0.6,1.2,1.3v8.7
		c0,0.7-0.5,1.2-1.2,1.2h-3.2c-0.7,0-1.2-0.6-1.2-1.2v-8.7c0-0.7,0.5-1.3,1.2-1.3H224.3z M223.9,376c-0.2,0-0.4,0.2-0.4,0.4v4.2h3.3
		v-4.2c0-0.2-0.2-0.4-0.4-0.4H223.9z M226.8,385.5v-4.2h-3.3v4.2c0,0.2,0.2,0.4,0.4,0.4h2.5C226.6,385.9,226.8,385.7,226.8,385.5z
		 M231,375h3.5c0.7,0,1.2,0.6,1.2,1.2v9.1c0,0.7-0.5,1.3-1.2,1.3h-2.2c-0.2,0-0.3-0.1-0.3-0.3c0-0.2,0.1-0.3,0.3-0.3h1.9
		c0.2,0,0.4-0.2,0.4-0.4v-9.4c0-0.2-0.2-0.4-0.4-0.4h-3.4l-0.5,1.7c-0.3,0.8-0.5,1.2-1.2,1.2h-0.5c-0.2,0-0.3-0.2-0.3-0.3v0
		c0-0.2,0.1-0.3,0.3-0.3h0c0.2,0,0.3-0.2,0.4-0.4l1.3-4c0.1-0.2,0.1-0.3,0.2-0.4c0.1-0.1,0.3-0.1,0.4-0.1h0c0.3,0,0.6,0.3,0.5,0.8
		L231,375z M231.3,382c0.3,0.8,0.5,1.2,1.2,1.2h0.5c0.2,0,0.3-0.2,0.3-0.3v0c0-0.2-0.1-0.3-0.3-0.3h0c-0.2,0-0.3-0.2-0.4-0.4
		l-0.8-2.4c-0.1-0.2-0.1-0.3-0.2-0.4c-0.1-0.1-0.3-0.1-0.4-0.1h0c-0.3,0-0.6,0.3-0.5,0.8L231.3,382z"/>
	<path class="st6" d="M240.4,376.2l0.7-2.4h-4.7c-0.2,0-0.3-0.1-0.3-0.3s0.2-0.3,0.3-0.3h13.2c0.2,0,0.3,0.2,0.3,0.3
		s-0.1,0.3-0.3,0.3h-7.2l-0.7,2.4h6.1c0.7,0,1.2,0.5,1.2,1.2v4.8c0,0.3-0.3,0.6-0.6,0.6h0c-0.3,0-0.6-0.3-0.6-0.6v-5
		c0-0.2-0.2-0.4-0.4-0.4h-8.8c-0.2,0-0.4,0.2-0.4,0.4v5c0,0.3-0.3,0.6-0.6,0.6h0c-0.3,0-0.6-0.3-0.6-0.6v-4.8c0-0.7,0.5-1.2,1.2-1.2
		H240.4z M242.4,379.4c0-0.3,0.3-0.6,0.6-0.6c0.3,0,0.6,0.3,0.6,0.6v3.3l6,2.9c0.3,0.2,0.4,0.5,0.3,0.8c-0.1,0.3-0.5,0.4-0.8,0.3
		l-6.1-3l-6.1,3c-0.3,0.2-0.7,0-0.8-0.3c-0.1-0.3,0-0.6,0.3-0.8l6-2.9V379.4z"/>
	<path class="st6" d="M254.8,376.4l0.6-2.6h-5c-0.2,0-0.3-0.2-0.3-0.4c0-0.2,0.2-0.3,0.3-0.3h13.2c0.2,0,0.3,0.2,0.3,0.3
		c0,0.2-0.1,0.4-0.3,0.4h-6.9l-0.6,2.6h6.2c0.7,0,1.2,0.5,1.2,1.2v7.7c0,0.7-0.5,1.2-1.2,1.2h-10.4c-0.7,0-1.2-0.6-1.2-1.2v-7.7
		c0-0.7,0.5-1.2,1.2-1.2H254.8z M252.2,385.9h1.9v-8.9h-1.9c-0.2,0-0.4,0.2-0.4,0.4v8C251.8,385.7,252,385.9,252.2,385.9z
		 M255.3,379.4h3.4v-2.3h-3.4V379.4z M255.3,383h3.4v-2.9h-3.4V383z M255.3,385.9h3.4v-2.3h-3.4V385.9z M259.9,377.1v8.9h1.9
		c0.2,0,0.4-0.2,0.4-0.4v-8c0-0.2-0.2-0.4-0.4-0.4H259.9z"/>
	<path class="st6" d="M264.4,384c-0.2,0-0.3-0.2-0.3-0.3v0c0-0.2,0.2-0.3,0.3-0.3c0,0,0.2,0,0.2-0.2l1.7-6.6h-1.2
		c-0.2,0-0.4-0.1-0.4-0.4c0-0.2,0.2-0.3,0.4-0.3h3.7c0.2,0,0.3,0.2,0.3,0.3c0,0.2-0.1,0.4-0.3,0.4h-1.1v9.6c0,0.4-0.3,0.6-0.6,0.6
		c-0.3,0-0.6-0.3-0.6-0.6v-5.9l-0.8,3.2c0,0.2-0.2,0.6-0.8,0.6H264.4z M267.3,374.4c0.1,0.2,0.3,0.2,0.4,0.2h0
		c0.2,0,0.3,0.2,0.3,0.3v0c0,0.2-0.2,0.3-0.3,0.3H267c-0.4,0-0.5-0.1-0.8-0.5l-0.5-0.7c-0.2-0.3-0.2-0.6,0.1-0.8
		c0.3-0.2,0.6-0.2,0.8,0.1L267.3,374.4z M268.3,377.6c0-0.3,0.3-0.5,0.5-0.5c0.3,0,0.5,0.3,0.5,0.6l-0.2,1.5c-0.1,0.8-1.1,0.6-1-0.1
		L268.3,377.6z M268.1,380.5c-0.1-0.7,0.9-0.9,1-0.1l0.2,1.5c0,0.3-0.2,0.5-0.5,0.6c-0.3,0-0.5-0.2-0.5-0.5L268.1,380.5z M276.6,375
		c0.7,0,1.2,0.6,1.2,1.2v0.9c0,0.3-0.3,0.6-0.6,0.6h0c-0.3,0-0.6-0.3-0.6-0.6v-1c0-0.3-0.2-0.4-0.4-0.4h-1.8v3.2h2.7
		c0.2,0,0.4,0.1,0.5,0.3c0.1,0.2,0.1,0.4,0,0.6l-2.3,3l2.4,2.9c0.2,0.3,0.2,0.6-0.1,0.9c-0.2,0.2-0.6,0.2-0.9-0.1l-2.3-2.7l-2,2.7
		c-0.2,0.3-0.6,0.3-0.9,0.1c-0.3-0.2-0.3-0.6-0.1-0.9l2.2-2.9l-1.5-1.8c-0.1-0.1-0.3-0.2-0.4-0.2h0c-0.2,0-0.3-0.2-0.3-0.3
		c0-0.2,0.2-0.3,0.3-0.3h0.5c0.6,0,1,0.1,1.3,0.5l1,1.1l1.5-2c0,0,0-0.1,0-0.2c0,0-0.1-0.1-0.1-0.1h-4.8v4.4c0,0.4-0.1,0.9-0.3,1.3
		l-0.5,1.2c-0.1,0.3-0.5,0.4-0.8,0.3c-0.3-0.1-0.4-0.5-0.3-0.8l0.5-1.1c0.1-0.3,0.2-0.5,0.2-0.8v-7.7c0-0.7,0.5-1.2,1.2-1.2h2v-1.5
		c0-0.3,0.3-0.6,0.6-0.6c0.4,0,0.6,0.3,0.6,0.6v1.5H276.6z M271.1,378.9h2.1v-3.2h-1.7c-0.2,0-0.4,0.2-0.4,0.4V378.9z"/>
	<path class="st6" d="M288,373.1c0.1-0.3,0.4-0.4,0.7-0.3c0.3,0.1,0.4,0.4,0.3,0.7l-0.9,2.8c-0.1,0.3-0.4,0.4-0.7,0.3
		c-0.3-0.1-0.4-0.4-0.4-0.7L288,373.1z M289.9,373.1c0.1-0.3,0.4-0.4,0.7-0.3c0.3,0.1,0.4,0.4,0.3,0.7l-0.9,2.8
		c-0.1,0.3-0.4,0.4-0.7,0.3c-0.3-0.1-0.4-0.4-0.4-0.7L289.9,373.1z"/>
	<path class="st6" d="M295.3,373.8c0.7,0,1.2,0.6,1.2,1.2v9.9c0,0.7-0.5,1.2-1.2,1.2h-1.9c-0.6,0-1.2-0.6-1.2-1.2V375
		c0-0.7,0.6-1.2,1.2-1.2H295.3z M293.8,374.4c-0.2,0-0.4,0.2-0.4,0.4V385c0,0.3,0.2,0.4,0.4,0.4h1.2c0.2,0,0.4-0.2,0.4-0.4v-10.2
		c0-0.2-0.2-0.4-0.4-0.4H293.8z M302.6,381.5l1.7-2.6c0-0.1,0-0.1,0-0.2c0,0-0.1-0.1-0.1-0.1H302c-0.2,0-0.4-0.1-0.5-0.3
		s-0.1-0.4,0-0.5l1.9-4v-0.1c0,0,0,0-0.1,0H300l-1.4,11.7c-0.1,0.7-0.5,1.3-1.2,1.3h-0.5c-0.2,0-0.3-0.2-0.3-0.3v0
		c0-0.2,0.1-0.3,0.3-0.3h0.1c0.2,0,0.4-0.2,0.4-0.4l1.4-11.8h-1.2c-0.2,0-0.3-0.2-0.3-0.3c0-0.2,0.2-0.4,0.3-0.4h6.6
		c0.2,0,0.4,0.1,0.5,0.3c0.1,0.2,0.1,0.4,0,0.5l-1.8,3.9c0,0,0,0.1,0,0.1c0,0,0.1,0.1,0.1,0.1h2.3c0.2,0,0.4,0.1,0.5,0.3
		c0.1,0.2,0.1,0.4,0,0.6l-2.4,3.6l2.5,3.3c0.5,0.7-0.4,1.4-1,0.7l-2.2-2.9l-1.9,2.9c-0.2,0.3-0.5,0.4-0.8,0.2
		c-0.3-0.2-0.3-0.5-0.2-0.8l2.1-3.3l-1.3-1.8c-0.2-0.2-0.3-0.2-0.4-0.2h0c-0.2,0-0.3-0.2-0.3-0.3v0c0-0.2,0.2-0.3,0.3-0.3h0.9
		c0.4,0,0.5,0.1,0.8,0.5L302.6,381.5z"/>
	<path class="st6" d="M308.1,373.1c0.1-0.3,0.4-0.4,0.7-0.3c0.3,0.1,0.4,0.4,0.3,0.7l-0.9,2.8c-0.1,0.3-0.4,0.4-0.7,0.3
		c-0.3-0.1-0.4-0.4-0.4-0.7L308.1,373.1z M310,373.1c0.1-0.3,0.4-0.4,0.7-0.3c0.3,0.1,0.4,0.4,0.3,0.7l-0.9,2.8
		c-0.1,0.3-0.4,0.4-0.7,0.3c-0.3-0.1-0.4-0.4-0.3-0.7L310,373.1z"/>
	<path class="st6" d="M326.4,373.6c0-0.3,0.3-0.6,0.6-0.6c0.3,0,0.6,0.3,0.6,0.6v1.5h5.3c0.2,0,0.3,0.2,0.3,0.3
		c0,0.2-0.1,0.3-0.3,0.3h-5.3v2.9h6c0.2,0,0.3,0.2,0.3,0.3c0,0.2-0.1,0.4-0.3,0.4h-13.2c-0.2,0-0.3-0.2-0.3-0.4
		c0-0.2,0.2-0.3,0.3-0.3h6v-2.9h-5.3c-0.2,0-0.3-0.2-0.3-0.3c0-0.2,0.2-0.3,0.3-0.3h5.3V373.6z M322.6,383.9c0,0.1,0,0.2,0,0.3
		l1,1.1c0.3,0.4,0.4,0.3,1.4,0.3h1.5v-5.1c0-0.3,0.3-0.6,0.6-0.6c0.3,0,0.6,0.3,0.6,0.6v1.3h4.8c0.2,0,0.3,0.2,0.3,0.4
		c0,0.2-0.1,0.3-0.3,0.3h-4.8v3.1h5.6c0.7,0,0.5,0.9,0,0.9H325c-0.9,0-1.5,0.1-1.9-0.5l-0.7-0.8c-0.1,0.3-0.3,0.6-0.6,0.9l-0.4,0.5
		c-0.4,0.5-1.1-0.1-0.7-0.6l0.4-0.6c0.3-0.4,0.3-0.9,0.3-1.8v-2.4c0-0.9,1.2-0.8,1.2,0V383.9z"/>
	<path class="st6" d="M341.8,385.4c0,0.7-0.6,1.2-1.2,1.2h-2.3c-0.2,0-0.3-0.2-0.3-0.3v0c0-0.2,0.2-0.3,0.3-0.3h1.9
		c0.2,0,0.4-0.2,0.4-0.4l0-6.4c0-0.4,0.1-0.8,0.5-1.1l4.3-3.6c0.1,0,0.1-0.1,0-0.2c0-0.1-0.1-0.1-0.1-0.1h-10.1
		c-0.2,0-0.3-0.2-0.3-0.3s0.2-0.3,0.3-0.3h11.6c0.2,0,0.4,0.1,0.5,0.4c0.1,0.2,0,0.5-0.2,0.6l-4.9,4.1c-0.3,0.2-0.4,0.6-0.4,0.9
		V385.4z"/>
</g>
</svg>
